<svg xmlns="http://www.w3.org/2000/svg" width="58.463" height="57.488" viewBox="0 0 58.463 57.488">
  <g id="Group_2301" data-name="Group 2301" transform="translate(-451 -442.5)">
    <path id="Path_3798" data-name="Path 3798" d="M461.385,448.5a4.385,4.385,0,1,0,4.385,4.385A4.39,4.39,0,0,0,461.385,448.5Zm0,6.821a2.436,2.436,0,1,1,2.436-2.436A2.439,2.439,0,0,1,461.385,455.321Z" transform="translate(-0.154 -0.154)" fill="#8ea3ae"/>
    <path id="Path_3799" data-name="Path 3799" d="M509.463,458.472V446.99a4.5,4.5,0,0,0-4.49-4.49H455.49a4.5,4.5,0,0,0-4.49,4.49v11.481a4.464,4.464,0,0,0,1.731,3.516A4.468,4.468,0,0,0,451,465.5v11.481a4.464,4.464,0,0,0,1.731,3.516A4.468,4.468,0,0,0,451,484.016V495.5a4.5,4.5,0,0,0,4.49,4.491h49.482a4.5,4.5,0,0,0,4.49-4.49V484.016a4.464,4.464,0,0,0-1.732-3.516,4.463,4.463,0,0,0,1.733-3.516V465.5a4.464,4.464,0,0,0-1.732-3.516A4.465,4.465,0,0,0,509.463,458.472Zm-1.949,25.544V495.5a2.544,2.544,0,0,1-2.541,2.541H455.49a2.543,2.543,0,0,1-2.541-2.54V484.016a2.544,2.544,0,0,1,2.541-2.541h49.482A2.544,2.544,0,0,1,507.514,484.016Zm0-18.513v11.481a2.544,2.544,0,0,1-2.541,2.541H455.49a2.543,2.543,0,0,1-2.541-2.54V465.5a2.544,2.544,0,0,1,2.541-2.541h49.482A2.544,2.544,0,0,1,507.514,465.5Zm-52.024-4.49a2.544,2.544,0,0,1-2.541-2.541V446.99a2.544,2.544,0,0,1,2.541-2.541h49.482a2.544,2.544,0,0,1,2.542,2.541v11.481a2.544,2.544,0,0,1-2.541,2.541H455.49Z" transform="translate(0)" fill="#8ea3ae"/>
    <path id="Path_3800" data-name="Path 3800" d="M461.385,476.269A4.385,4.385,0,1,0,457,471.885,4.39,4.39,0,0,0,461.385,476.269Zm0-6.821a2.436,2.436,0,1,1-2.436,2.436A2.439,2.439,0,0,1,461.385,469.449Z" transform="translate(-0.154 -0.64)" fill="#8ea3ae"/>
    <path id="Path_3801" data-name="Path 3801" d="M461.385,495.269A4.385,4.385,0,1,0,457,490.885,4.39,4.39,0,0,0,461.385,495.269Zm0-6.821a2.436,2.436,0,1,1-2.436,2.436A2.439,2.439,0,0,1,461.385,488.449Z" transform="translate(-0.154 -1.127)" fill="#8ea3ae"/>
    <g id="Group_2300" data-name="Group 2300" transform="translate(472.701 466.917)">
      <path id="Path_3802" data-name="Path 3802" d="M478.827,468.586v4.385a8.235,8.235,0,0,1-.049.97,3.055,3.055,0,0,1-.22.811,2.189,2.189,0,0,1-.941,1.077,3.109,3.109,0,0,1-1.6.385,3.312,3.312,0,0,1-1.419-.268,2.082,2.082,0,0,1-.917-.868,3.139,3.139,0,0,1-.3-.736,3.012,3.012,0,0,1-.114-.794.749.749,0,0,1,.793-.822.641.641,0,0,1,.508.195,1.35,1.35,0,0,1,.263.605,5.566,5.566,0,0,0,.194.7,1.057,1.057,0,0,0,.325.451,1,1,0,0,0,.651.189q1.125,0,1.124-1.651v-4.63a1.144,1.144,0,0,1,.226-.771.773.773,0,0,1,.614-.256.8.8,0,0,1,.625.256A1.118,1.118,0,0,1,478.827,468.586Z" transform="translate(-473.272 -467.559)" fill="#8ea3ae"/>
      <path id="Path_3803" data-name="Path 3803" d="M482.084,468.672l1.895,5.612,1.9-5.652c.1-.3.173-.5.223-.62a.831.831,0,0,1,.245-.314.716.716,0,0,1,.468-.139.783.783,0,0,1,.4.108.794.794,0,0,1,.291.288.7.7,0,0,1,.106.362,1.159,1.159,0,0,1-.035.271,2.4,2.4,0,0,1-.085.286c-.035.094-.069.19-.1.288l-2.027,5.469q-.108.314-.217.6a2.537,2.537,0,0,1-.25.5,1.092,1.092,0,0,1-.96.488,1.161,1.161,0,0,1-.58-.134,1.1,1.1,0,0,1-.382-.355,2.569,2.569,0,0,1-.254-.5q-.108-.281-.217-.594l-1.992-5.423c-.035-.1-.07-.2-.106-.291a2.39,2.39,0,0,1-.092-.308,1.349,1.349,0,0,1-.037-.28.741.741,0,0,1,.235-.531.786.786,0,0,1,.588-.24.686.686,0,0,1,.614.265A3.563,3.563,0,0,1,482.084,468.672Z" transform="translate(-473.451 -467.559)" fill="#8ea3ae"/>
      <path id="Path_3804" data-name="Path 3804" d="M491.94,474.813,490.6,469.48v5.778a1.053,1.053,0,0,1-.214.719.786.786,0,0,1-1.127,0,1.037,1.037,0,0,1-.217-.722v-6.623a.832.832,0,0,1,.285-.74,1.373,1.373,0,0,1,.771-.191h.525a1.99,1.99,0,0,1,.688.086.576.576,0,0,1,.317.308,4.731,4.731,0,0,1,.235.726l1.216,4.584,1.216-4.584a4.886,4.886,0,0,1,.234-.726.579.579,0,0,1,.317-.308,1.993,1.993,0,0,1,.688-.086h.525a1.373,1.373,0,0,1,.771.191.829.829,0,0,1,.285.74v6.623a1.053,1.053,0,0,1-.213.719.732.732,0,0,1-.574.24.715.715,0,0,1-.555-.24,1.044,1.044,0,0,1-.216-.719V469.48l-1.342,5.333q-.132.519-.214.762a1.048,1.048,0,0,1-.306.442.887.887,0,0,1-.616.2.94.94,0,0,1-.5-.128.928.928,0,0,1-.32-.328,1.891,1.891,0,0,1-.18-.442C492.029,475.157,491.985,474.988,491.94,474.813Z" transform="translate(-473.676 -467.563)" fill="#8ea3ae"/>
    </g>
  </g>
</svg>
