<svg xmlns="http://www.w3.org/2000/svg" width="57.488" height="57.488" viewBox="0 0 57.488 57.488">
  <g id="Group_2297" data-name="Group 2297" transform="translate(-393.56 -408.149)">
    <path id="Path_3795" data-name="Path 3795" d="M449.925,424.542a1.123,1.123,0,1,0,0-2.245h-8.534v-1.122a3.372,3.372,0,0,0-3.369-3.369H436.9v-8.534a1.123,1.123,0,0,0-2.247,0v8.534h-4.491v-8.534a1.123,1.123,0,1,0-2.245,0v8.534h-4.492v-8.534a1.123,1.123,0,1,0-2.245,0v8.534H416.69v-8.534a1.123,1.123,0,1,0-2.245,0v8.534h-4.492v-8.534a1.123,1.123,0,1,0-2.245,0v8.534h-1.122a3.372,3.372,0,0,0-3.369,3.369V422.3h-8.534a1.123,1.123,0,1,0,0,2.245h8.534v4.492h-8.534a1.123,1.123,0,1,0,0,2.245h8.534v4.492h-8.534a1.123,1.123,0,1,0,0,2.245h8.534v4.492h-8.534a1.123,1.123,0,1,0,0,2.245h8.534v4.49h-8.534a1.123,1.123,0,0,0,0,2.247h8.534v1.122a3.372,3.372,0,0,0,3.369,3.369h1.122v8.534a1.123,1.123,0,1,0,2.245,0V455.98h4.492v8.534a1.123,1.123,0,1,0,2.245,0V455.98h4.492v8.534a1.123,1.123,0,1,0,2.245,0V455.98h4.492v8.534a1.123,1.123,0,1,0,2.245,0V455.98h4.491v8.534a1.123,1.123,0,0,0,2.247,0V455.98h1.122a3.372,3.372,0,0,0,3.369-3.369V451.49h8.534a1.123,1.123,0,1,0,0-2.247h-8.534v-4.49h8.534a1.123,1.123,0,1,0,0-2.245h-8.534v-4.492h8.534a1.123,1.123,0,1,0,0-2.245h-8.534v-4.492h8.534a1.123,1.123,0,1,0,0-2.245h-8.534v-4.492Zm-10.779,28.07a1.124,1.124,0,0,1-1.123,1.123H406.585a1.124,1.124,0,0,1-1.123-1.123V421.174a1.124,1.124,0,0,1,1.123-1.123h31.438a1.124,1.124,0,0,1,1.123,1.123Z" transform="translate(0 0)" fill="#8ea3ae"/>
    <path id="Path_3796" data-name="Path 3796" d="M415.993,435.2a1.123,1.123,0,1,1-1.123-1.123A1.122,1.122,0,0,1,415.993,435.2Z" transform="translate(7.434 9.549)" fill="#8ea3ae"/>
    <path id="Path_3797" data-name="Path 3797" d="M424.846,422.592H409.126A1.124,1.124,0,0,0,408,423.715v15.719a1.123,1.123,0,0,0,1.123,1.122h2.808a1.123,1.123,0,0,0,0-2.245H410.25V424.839h13.473v13.473h-1.684a1.123,1.123,0,0,0,0,2.245h2.808a1.122,1.122,0,0,0,1.122-1.122V423.715A1.123,1.123,0,0,0,424.846,422.592Z" transform="translate(5.318 5.318)" fill="#8ea3ae"/>
  </g>
</svg>
