<svg id="Group_2298" data-name="Group 2298" xmlns="http://www.w3.org/2000/svg" width="38.477" height="57.489" viewBox="0 0 38.477 57.489">
  <path id="Path_3725" data-name="Path 3725" d="M329.992,261.469a.855.855,0,0,0-1.261.3.876.876,0,0,0,.284,1.1,3.135,3.135,0,0,1,1.262,2.507v39.99a3.127,3.127,0,0,1-3.13,3.124h-28.8a2.886,2.886,0,0,1-2.466-1.234,3.63,3.63,0,0,1-.665-2.125V268.818a.876.876,0,0,0-.828-.887.852.852,0,0,0-.88.852V313.09a4.833,4.833,0,0,0,4.838,4.828h11.348a.876.876,0,0,0,.889-.825.854.854,0,0,0-.853-.879H298.346a3.128,3.128,0,0,1-3.131-3.124v-4.035a4.836,4.836,0,0,0,3.131,1.139h28.8a4.822,4.822,0,0,0,3.13-1.151v4.048a3.127,3.127,0,0,1-3.13,3.124H313.181a.877.877,0,0,0-.889.826.852.852,0,0,0,.853.878h14a4.832,4.832,0,0,0,4.837-4.828V265.375A4.842,4.842,0,0,0,329.992,261.469Z" transform="translate(-293.508 -260.43)" fill="#8ea3ae"/>
  <path id="Path_3726" data-name="Path 3726" d="M294.342,266.99a.917.917,0,0,0,.835-.982,3.365,3.365,0,0,1,3.062-3.6h27.275a1,1,0,0,0,0-1.966H298.24c-2.615,0-4.732,2.491-4.732,5.571A.917.917,0,0,0,294.342,266.99Z" transform="translate(-293.508 -260.437)" fill="#8ea3ae"/>
  <path id="Path_3727" data-name="Path 3727" d="M331.622,321.976v-2.425a.983.983,0,0,0-1.966,0v2.425a.983.983,0,1,0,1.966,0Z" transform="translate(-299.021 -268.638)" fill="#8ea3ae"/>
  <path id="Path_3728" data-name="Path 3728" d="M327.29,321.976v-2.425a.983.983,0,0,0-1.966,0v2.425a.983.983,0,1,0,1.966,0Z" transform="translate(-297.649 -268.638)" fill="#8ea3ae"/>
  <path id="Path_3729" data-name="Path 3729" d="M322.959,321.976v-2.425a.983.983,0,0,0-1.966,0v2.425a.983.983,0,1,0,1.966,0Z" transform="translate(-297.085 -268.638)" fill="#8ea3ae"/>
  <path id="Path_3730" data-name="Path 3730" d="M318.627,321.976v-2.425a.983.983,0,0,0-1.966,0v2.425a.983.983,0,1,0,1.966,0Z" transform="translate(-296.521 -268.638)" fill="#8ea3ae"/>
  <path id="Path_3731" data-name="Path 3731" d="M313.312,318.569a.983.983,0,0,0-.983.982v2.425a.983.983,0,1,0,1.966,0v-2.425A.982.982,0,0,0,313.312,318.569Z" transform="translate(-295.958 -268.638)" fill="#8ea3ae"/>
  <path id="Path_3732" data-name="Path 3732" d="M308,319.551v2.425a.983.983,0,1,0,1.967,0v-2.425a.983.983,0,0,0-1.967,0Z" transform="translate(-295.394 -268.638)" fill="#8ea3ae"/>
  <path id="Path_3733" data-name="Path 3733" d="M303.666,319.551v2.425a.983.983,0,1,0,1.966,0v-2.425a.983.983,0,0,0-1.966,0Z" transform="translate(-294.83 -268.638)" fill="#8ea3ae"/>
  <path id="Path_3734" data-name="Path 3734" d="M299.334,319.551v2.425a.983.983,0,1,0,1.966,0v-2.425a.983.983,0,0,0-1.966,0Z" transform="translate(-293.458 -268.638)" fill="#8ea3ae"/>
  <path id="Path_3735" data-name="Path 3735" d="M301.306,270.988a3.31,3.31,0,1,0-3.309-3.31A3.313,3.313,0,0,0,301.306,270.988Zm0-4.654a1.343,1.343,0,1,1-1.344,1.343A1.346,1.346,0,0,1,301.306,266.334Z" transform="translate(-293.469 -260.403)" fill="#8ea3ae"/>
  <path id="Path_3736" data-name="Path 3736" d="M326.38,267.677a3.31,3.31,0,1,0,3.309-3.309A3.313,3.313,0,0,0,326.38,267.677Zm4.653,0a1.343,1.343,0,1,1-1.344-1.343A1.344,1.344,0,0,1,331.033,267.677Z" transform="translate(-299.049 -260.403)" fill="#8ea3ae"/>
  <path id="Path_3737" data-name="Path 3737" d="M301.306,313.352A3.31,3.31,0,1,0,298,310.042,3.314,3.314,0,0,0,301.306,313.352Zm0-4.654a1.343,1.343,0,1,1-1.344,1.345A1.346,1.346,0,0,1,301.306,308.7Z" transform="translate(-293.469 -266.859)" fill="#8ea3ae"/>
  <path id="Path_3738" data-name="Path 3738" d="M329.689,313.352a3.31,3.31,0,1,0-3.309-3.309A3.314,3.314,0,0,0,329.689,313.352Zm0-4.654a1.343,1.343,0,1,1-1.343,1.345A1.345,1.345,0,0,1,329.689,308.7Z" transform="translate(-299.049 -266.859)" fill="#8ea3ae"/>
  <g id="Group_2252" data-name="Group 2252" transform="translate(12.262 17.191)">
    <path id="Path_3739" data-name="Path 3739" d="M314.625,284.652a3.874,3.874,0,0,1-.788,2.663,2.758,2.758,0,0,1-2.157.872,3.083,3.083,0,0,1-1.515-.37,2.5,2.5,0,0,1-1.046-1.159,4.445,4.445,0,0,1-.374-1.922,6.123,6.123,0,0,1,.29-2.034,2.359,2.359,0,0,1,.943-1.239,3,3,0,0,1,1.664-.422,3.388,3.388,0,0,1,1.285.225,2.345,2.345,0,0,1,.937.689,3.023,3.023,0,0,1,.573,1.131A5.806,5.806,0,0,1,314.625,284.652Zm-1.754-.095a4.464,4.464,0,0,0-.263-1.786.939.939,0,0,0-.928-.558.97.97,0,0,0-.718.267,1.486,1.486,0,0,0-.365.788,7.361,7.361,0,0,0-.1,1.327,7.628,7.628,0,0,0,.1,1.36,1.5,1.5,0,0,0,.361.793.965.965,0,0,0,.722.267.931.931,0,0,0,.943-.591A5.163,5.163,0,0,0,312.871,284.557Zm8.009-2.279-7.813,12.6q-.3.516-.676.515a.711.711,0,0,1-.431-.163.512.512,0,0,1-.216-.427.917.917,0,0,1,.188-.479l7.859-12.7a3.517,3.517,0,0,1,.362-.52.562.562,0,0,1,.445-.173.633.633,0,0,1,.455.164.573.573,0,0,1,.173.436A1.933,1.933,0,0,1,320.881,282.279Zm3.349,9.153a3.872,3.872,0,0,1-.789,2.664,2.756,2.756,0,0,1-2.156.872,3.061,3.061,0,0,1-1.524-.375,2.561,2.561,0,0,1-1.051-1.154,4.359,4.359,0,0,1-.379-1.922,4.534,4.534,0,0,1,.7-2.753,2.6,2.6,0,0,1,2.219-.924,3.354,3.354,0,0,1,1.28.225,2.465,2.465,0,0,1,.938.676,2.866,2.866,0,0,1,.576,1.121A5.856,5.856,0,0,1,324.229,291.432Zm-1.755-.093a4.427,4.427,0,0,0-.261-1.768.942.942,0,0,0-.929-.559.99.99,0,0,0-.732.263,1.508,1.508,0,0,0-.37.774,6.669,6.669,0,0,0-.107,1.327,4.676,4.676,0,0,0,.266,1.838.953.953,0,0,0,.943.582.931.931,0,0,0,.937-.6A5.054,5.054,0,0,0,322.474,291.339Z" transform="translate(-308.745 -280.928)" fill="#8ea3ae"/>
  </g>
</svg>
