<svg xmlns="http://www.w3.org/2000/svg" width="53.171" height="58.488" viewBox="0 0 53.171 58.488">
  <g id="Group_1976" data-name="Group 1976" transform="translate(-232.341 -651)">
    <text id="NoSQL" transform="translate(259.174 697.592)" fill="#8ea3ae" font-size="10" font-family="Roboto-Black, Roboto" font-weight="800"><tspan x="-15.61" y="0">NoSQL</tspan></text>
    <path id="Path_3913" data-name="Path 3913" d="M285.357,660.05c-1.231-4.562-10.4-9.05-26.43-9.05s-25.2,4.488-26.43,9.05a1.041,1.041,0,0,0-.155.521v39.347a1,1,0,0,0,.124.479c1.256,5.206,12.492,9.091,26.461,9.091,13.937,0,25.155-3.87,26.453-9.056a1.05,1.05,0,0,0,.133-.515V660.571A1.052,1.052,0,0,0,285.357,660.05Zm-26.43-6.923c14.415,0,24.459,4.2,24.459,7.976s-10.044,7.976-24.459,7.976-24.459-4.2-24.459-7.976S244.512,653.127,258.927,653.127Zm-24.459,19.9v-7.895c.128.116.273.23.412.344.077.064.148.128.228.191.32.251.665.5,1.038.74.078.05.165.1.246.149.312.195.643.385.991.572.129.069.257.137.39.205q.582.3,1.224.576c.07.031.134.063.2.092.5.212,1.029.414,1.58.609.152.054.312.105.468.159.438.148.89.289,1.36.426.169.049.335.1.508.147.622.172,1.264.336,1.939.487.092.021.192.038.286.059.594.13,1.211.25,1.845.362.214.038.433.074.652.111q.9.148,1.861.272c.163.021.32.046.486.066.79.1,1.61.178,2.451.248.207.017.423.03.634.045q1.01.073,2.065.121c.256.012.512.023.773.033.917.031,1.85.053,2.818.053s1.9-.022,2.818-.053c.261-.01.516-.021.773-.033q1.056-.048,2.065-.121c.211-.016.425-.028.634-.045.841-.069,1.66-.152,2.451-.248.166-.02.322-.045.486-.066q.955-.125,1.861-.272c.219-.036.437-.072.652-.111.634-.113,1.251-.233,1.845-.362.094-.02.194-.038.286-.059.674-.151,1.316-.316,1.939-.487.173-.048.339-.1.508-.147q.7-.206,1.36-.426c.156-.053.316-.1.468-.159.551-.2,1.081-.4,1.579-.609.071-.03.135-.062.205-.092q.643-.281,1.224-.576c.133-.068.263-.136.39-.205q.522-.279.991-.572c.081-.05.168-.1.246-.149.373-.241.718-.488,1.037-.74.08-.064.151-.128.229-.191.138-.115.284-.229.412-.344v7.895a1.061,1.061,0,0,0-.033.473,2.152,2.152,0,0,1,.033.359,2.3,2.3,0,0,1-.084.516,2.613,2.613,0,0,1-.123.386,2.846,2.846,0,0,1-.153.316,3.449,3.449,0,0,1-.245.392c-.07.1-.15.2-.233.294-.118.139-.244.279-.386.417-.086.084-.181.167-.278.251-.174.152-.355.3-.559.453-.086.065-.18.128-.272.192-.24.166-.491.331-.767.492-.072.044-.15.085-.226.128-.316.179-.647.356-1,.529-.046.022-.094.044-.14.065-.4.188-.816.373-1.262.552l-.037.015a41.215,41.215,0,0,1-9.1,2.308l-.054.008q-1.05.155-2.155.275c-.12.013-.247.021-.368.034-.644.067-1.3.129-1.964.178-.306.022-.627.033-.94.052-.5.03-1,.063-1.519.081-.844.027-1.706.044-2.585.044s-1.741-.017-2.586-.047c-.517-.018-1.016-.052-1.52-.081-.312-.018-.633-.03-.939-.052-.67-.049-1.321-.111-1.964-.178-.121-.013-.248-.021-.369-.034q-1.1-.121-2.155-.275l-.053-.008a41.229,41.229,0,0,1-9.105-2.308l-.037-.015c-.446-.179-.863-.364-1.261-.552-.046-.022-.095-.044-.141-.065-.357-.172-.687-.349-1-.529-.074-.042-.153-.084-.225-.128-.275-.162-.526-.326-.767-.492-.091-.064-.186-.126-.273-.191-.2-.15-.385-.3-.559-.453-.1-.083-.19-.166-.276-.251-.142-.138-.268-.277-.387-.417-.083-.1-.162-.2-.232-.294a3.979,3.979,0,0,1-.246-.392,3.055,3.055,0,0,1-.152-.316,2.579,2.579,0,0,1-.123-.386,2.3,2.3,0,0,1-.083-.513,2.271,2.271,0,0,1,.033-.359A1.06,1.06,0,0,0,234.468,673.031Zm48.884,26.714c-.6,3.678-10.562,7.616-24.425,7.616s-23.822-3.938-24.425-7.616a1.418,1.418,0,0,0-.034-.139v-8.846a18.229,18.229,0,0,0,6.988,3.645,1.1,1.1,0,0,0,.216.031c.021.008.038.015.058.021v-.013c.014,0,.027.005.04.005a1.116,1.116,0,0,0,.313-2.187c-.223-.066-.431-.136-.642-.205-.414-.143-.825-.287-1.2-.438l-.037-.015c-.372-.149-.715-.3-1.052-.461a12.922,12.922,0,0,1-4.087-2.93,3.792,3.792,0,0,1-.234-.374,3.055,3.055,0,0,1-.152-.316,2.577,2.577,0,0,1-.123-.386,2.3,2.3,0,0,1-.083-.513,2.272,2.272,0,0,1,.033-.36,1.059,1.059,0,0,0-.033-.473V677.9c.03.027.066.054.1.082.232.2.468.407.734.6,4.006,3.03,12.017,5.384,23.627,5.384,11.562,0,19.552-2.335,23.575-5.347a10.8,10.8,0,0,0,.883-.721h0v7.895a1.06,1.06,0,0,0-.033.473,2.153,2.153,0,0,1,.033.36,2.3,2.3,0,0,1-.084.516,2.617,2.617,0,0,1-.123.386,2.873,2.873,0,0,1-.153.316,3.442,3.442,0,0,1-.245.392c-.07.1-.15.2-.233.295-.017.019-.037.038-.054.057a12.422,12.422,0,0,1-2.676,2c-.246.135-.491.27-.762.4-.046.022-.094.044-.14.065-.4.188-.816.373-1.262.552l-.037.015c-.45.18-.932.351-1.427.519-.128.039-.248.082-.38.121a1.116,1.116,0,0,0,.313,2.187h0v.007l.032-.012a1.132,1.132,0,0,0,.282-.04,18.3,18.3,0,0,0,6.949-3.611V699.6A1.082,1.082,0,0,0,283.352,699.745Z" transform="translate(0)" fill="#8ea3ae"/>
  </g>
</svg>
